# Blender 4.3.2
# www.blender.org
mtllib ladle_trg.mtl
o uploads_files_80681_measspoon_v11_20140105-19199-1q8b8rj-0
v -0.096500 -0.003656 0.015366
v -0.096626 0.001093 0.009324
v -0.096172 0.005032 0.016597
v -0.095079 -0.001693 0.004304
v -0.095803 0.001607 0.020595
v -0.094975 -0.008652 0.009543
v -0.094373 -0.003694 0.023300
v -0.091886 0.009089 0.024873
v -0.094544 -0.010211 0.013970
v -0.092742 -0.010129 0.022477
v -0.094208 0.011177 0.011807
v -0.093153 -0.006881 0.002633
v -0.090135 0.000190 0.029977
v -0.093978 0.007100 0.004369
v -0.093370 0.012053 0.016471
v -0.086885 0.014110 0.026729
v -0.091021 -0.000867 -0.002106
v -0.089922 0.016101 0.017987
v -0.091034 -0.014808 0.007945
v -0.086876 -0.003735 -0.005567
v -0.088598 0.002723 -0.004347
v -0.089469 -0.006436 0.029286
v -0.084417 -0.017831 0.024270
v -0.084092 -0.015068 0.023924
v -0.078230 -0.020123 0.018084
v -0.075707 -0.023241 0.015552
v -0.071238 -0.021036 0.011096
v -0.068303 -0.022330 0.008161
v -0.064407 -0.017063 0.004243
v -0.062196 -0.017210 0.001586
v -0.059929 -0.013594 -0.000228
v -0.059410 -0.007821 -0.000718
v -0.057101 -0.003672 -0.003060
v -0.058585 -0.001876 -0.001567
v -0.058529 0.000005 -0.001604
v -0.058516 0.000005 -0.001616
v -0.058516 0.000005 -0.001616
v -0.058516 0.000005 -0.001616
v -0.058516 0.000005 -0.001616
v -0.058603 0.002347 -0.001637
v -0.059592 0.008519 -0.000558
v -0.058006 0.008676 -0.002166
v -0.064246 0.016775 0.004084
v -0.063686 0.019254 0.003533
v -0.068278 0.020006 0.008074
v -0.083526 0.016168 0.023176
v -0.057168 0.003636 -0.003008
v -0.085902 0.011876 0.025751
v -0.073787 0.023620 0.013652
v -0.088610 -0.000211 0.028428
v -0.075932 0.021080 0.015768
v -0.089462 -0.016670 0.018114
v -0.089699 -0.005553 -0.002564
v -0.092427 0.001830 -0.000248
v -0.082075 0.019987 0.021913
v -0.074748 0.022344 0.005798
v -0.064885 0.014638 -0.002995
v 0.058569 0.003426 -0.002738
v -0.058133 0.000005 -0.001201
v -0.058181 -0.000542 -0.001228
v -0.058355 -0.001261 -0.001384
v 0.058563 -0.002984 -0.002312
v -0.062697 -0.008128 -0.006045
v -0.076706 -0.022853 0.008271
v -0.082554 -0.021497 0.015906
v -0.087107 -0.009237 0.026799
v -0.065550 -0.012259 -0.002312
v -0.060420 -0.003542 -0.002958
v -0.067578 0.015659 -0.000157
v -0.073414 0.020278 0.006645
v -0.084058 0.018353 0.016065
v -0.082383 0.001217 -0.008338
v -0.086972 0.006580 -0.004663
v -0.091938 0.009552 0.002161
v -0.088477 0.017814 0.011405
v -0.083611 0.020949 0.016809
v -0.082204 0.021667 0.010166
v 0.058773 0.001499 -0.001340
v 0.058534 -0.000789 -0.001203
v 0.058597 -0.004388 -0.004497
v -0.061432 -0.004482 -0.006258
v -0.070347 -0.019966 0.001306
v -0.083402 -0.018889 0.014883
v -0.077735 -0.020661 0.010026
v -0.071021 -0.018663 0.003155
v -0.090265 0.006874 0.024472
v -0.088408 -0.010806 -0.001302
v -0.087484 0.016729 0.004417
v -0.071716 0.018797 -0.000809
v -0.062475 0.008041 -0.005793
v -0.060320 0.004444 -0.005439
v 0.058577 0.004484 -0.005261
v -0.068279 -0.012701 -0.005921
v -0.093192 -0.002167 0.021213
v -0.091516 -0.007216 0.021905
v -0.089862 -0.013267 0.017059
v -0.063395 -0.005605 -0.004584
v -0.060806 0.000184 -0.003681
v -0.065964 0.008651 -0.004733
v -0.062974 0.002015 -0.005005
v -0.080503 0.019891 0.010171
v -0.091231 0.009768 0.019889
v -0.082176 -0.010443 -0.005776
v -0.079798 -0.006449 -0.008347
v -0.079160 0.007102 -0.008313
v -0.085586 0.011216 -0.003463
v 0.060909 -0.003363 -0.003580
v -0.064040 -0.001951 -0.005565
v -0.069557 0.008504 -0.008275
v 0.058564 0.003765 -0.007988
v 0.061167 0.002585 -0.008378
v 0.062030 -0.001160 -0.008331
v 0.060654 -0.003067 -0.008237
v -0.065472 -0.003446 -0.008355
v -0.071606 -0.008771 -0.008357
v -0.065154 0.003664 -0.008270
v 0.058560 -0.003857 -0.007855
v -0.075869 -0.018309 -0.001299
v -0.085572 -0.019753 0.009846
v -0.077331 -0.017358 0.001424
v -0.069933 0.010716 -0.004915
v -0.080647 0.018484 0.005559
v -0.084200 -0.015498 -0.000763
v -0.079056 0.013159 -0.005333
v -0.082659 0.015313 -0.001854
v -0.078679 0.019107 0.000695
v -0.072728 0.013520 -0.005866
v 0.060770 -0.000585 -0.001656
v 0.059461 -0.001696 -0.001552
v -0.082772 -0.019585 0.004278
v -0.094433 0.003292 0.015627
v -0.072435 -0.014370 -0.002330
v -0.069764 -0.004037 -0.007203
v -0.091378 0.011652 0.014362
v 0.060880 0.003706 -0.006917
v -0.087612 -0.015205 0.008820
v -0.082426 -0.017383 0.005060
v -0.070385 -0.008244 -0.006050
v -0.067963 0.000233 -0.007163
v -0.070152 0.004049 -0.007159
v -0.076805 0.015520 -0.001023
v -0.076114 -0.012964 -0.006007
v 0.062696 0.001467 -0.006562
v 0.061003 0.003478 -0.003770
v 0.060220 -0.004136 -0.006173
v -0.094540 -0.002511 0.013799
v -0.092767 -0.008907 0.011933
v -0.070904 -0.002403 -0.007558
v -0.086467 0.015817 0.007423
v -0.089680 0.012727 0.008012
v -0.079607 -0.011071 -0.003806
v -0.073636 -0.006476 -0.007158
v -0.077759 0.008405 -0.005889
v -0.073418 0.003921 -0.007472
v 0.062779 -0.001790 -0.005886
v 0.061588 0.000906 -0.002360
v -0.084936 -0.013582 0.001653
v -0.071516 0.001591 -0.007691
v -0.081605 0.013782 -0.000662
v -0.092813 0.007460 0.008667
v -0.089936 -0.009982 0.004382
v -0.073437 -0.001245 -0.007759
v -0.086870 0.010942 0.000810
v -0.093725 -0.000476 0.006824
v -0.092208 -0.005574 0.004810
v -0.078401 -0.000403 -0.007435
v -0.073437 0.000005 -0.007797
v -0.073437 -0.001037 -0.007765
v -0.073437 -0.000579 -0.007779
v -0.073437 0.000005 -0.007797
v -0.086500 -0.009026 -0.000792
v -0.081379 0.001685 -0.006325
v -0.073437 0.000589 -0.007779
v -0.073437 0.000005 -0.007797
v -0.073437 0.001047 -0.007765
v -0.073437 0.001228 -0.007759
v -0.086172 0.008580 -0.001368
v -0.073437 0.001256 -0.007759
v -0.091526 0.006179 0.004028
v 0.062790 0.000764 -0.004096
v -0.083453 -0.005147 -0.004768
v -0.084528 0.004749 -0.004191
v 0.062545 -0.001554 -0.004174
v -0.088202 -0.003825 -0.001437
v -0.090536 0.001835 0.000654
v -0.085926 0.000029 -0.003776
v -0.088928 0.000748 -0.001096
vn -0.9861 0.0527 -0.1577
vn -0.9832 -0.1598 0.0879
vn -0.9665 0.2217 0.1292
vn -0.9406 0.0751 0.3311
vn -0.9198 -0.3501 -0.1773
vn -0.9213 -0.0725 -0.3822
vn -0.8916 -0.4491 0.0582
vn -0.8908 -0.1511 0.4285
vn -0.8751 0.4744 -0.0950
vn -0.7727 0.3648 0.5195
vn -0.8038 -0.4435 0.3966
vn -0.8440 0.5101 0.1658
vn -0.8368 -0.3103 -0.4511
vn -0.7566 -0.0567 -0.6514
vn -0.8177 0.1024 -0.5664
vn -0.8030 0.0481 0.5941
vn -0.8944 0.2778 -0.3505
vn -0.7521 -0.3090 0.5821
vn -0.6901 0.6913 0.2142
vn -0.6497 0.5933 0.4754
vn -0.7373 -0.6329 -0.2362
vn -0.6824 -0.7053 0.1922
vn -0.7026 -0.2421 -0.6691
vn -0.5529 -0.1647 -0.8168
vn -0.6453 0.1222 -0.7541
vn 0.6996 -0.0043 0.7146
vn 0.9525 0.2448 0.1814
vn 0.7012 -0.0114 0.7129
vn 0.7014 0.0064 0.7128
vn 0.7066 -0.0025 0.7077
vn 0.7068 -0.0014 0.7074
vn 0.7514 -0.0795 0.6550
vn 0.7129 -0.0065 0.7012
vn 0.7147 -0.0040 0.6995
vn 0.7167 -0.0249 0.6970
vn 0.7115 -0.0083 0.7026
vn 0.7116 -0.0056 0.7026
vn 0.7120 -0.0048 0.7022
vn 0.7105 0.0019 0.7037
vn 0.7114 0.0008 0.7027
vn -0.0000 -0.0000 1.0000
vn 0.7042 -0.0011 0.7100
vn 0.7100 0.0009 0.7042
vn 0.7040 -0.0030 0.7102
vn 0.7011 -0.0283 0.7125
vn 0.6970 -0.0137 0.7170
vn 0.7000 -0.0108 0.7141
vn 0.7093 -0.0039 0.7048
vn 0.8131 -0.1199 0.5696
vn 0.7199 -0.0409 0.6929
vn 0.7064 0.0006 0.7078
vn 0.7071 -0.0119 0.7070
vn 0.7119 0.0021 0.7023
vn 0.7065 0.0325 0.7070
vn 0.7571 -0.1405 0.6380
vn 0.7062 0.0055 0.7079
vn 0.6977 0.0076 0.7164
vn 0.7068 -0.0075 0.7073
vn 0.6968 0.0089 0.7172
vn -0.7684 0.4249 -0.4786
vn -0.6541 0.7514 -0.0868
vn -0.4138 0.8960 0.1609
vn -0.4337 0.8463 0.3093
vn -0.0753 0.9957 -0.0547
vn -0.0225 0.9526 -0.3033
vn 0.3266 0.8194 -0.4711
vn 0.3849 0.6173 -0.6861
vn 0.5812 0.4044 -0.7062
vn -0.0006 0.8642 0.5031
vn -0.0008 0.4218 0.9067
vn 0.1204 0.7669 0.6304
vn 0.1687 0.3473 0.9225
vn -0.7355 -0.0216 0.6772
vn -0.7354 0.0308 0.6769
vn -0.7354 0.0309 0.6770
vn -0.6913 0.0445 0.7211
vn 0.0878 -0.6809 0.7271
vn 0.0610 -0.1718 0.9832
vn -0.0007 -0.4541 0.8910
vn -0.0022 -0.8578 0.5141
vn 0.4818 -0.5320 -0.6963
vn 0.4629 -0.3652 -0.8077
vn 0.6364 -0.3331 -0.6957
vn 0.1374 -0.9469 -0.2907
vn -0.1520 -0.9868 0.0552
vn -0.1337 -0.9669 -0.2173
vn -0.5370 -0.7421 0.4012
vn -0.3701 -0.9186 0.1387
vn 0.2811 0.9445 -0.1701
vn 0.4769 0.8755 -0.0779
vn 0.6055 0.7050 -0.3692
vn -0.0387 0.9830 0.1794
vn 0.1979 0.9678 0.1554
vn -0.3563 0.7883 0.5016
vn -0.1251 0.8800 0.4582
vn -0.5836 0.4014 0.7059
vn -0.3826 0.5863 0.7140
vn -0.6178 0.1627 0.7693
vn -0.6723 0.1003 0.7335
vn -0.5969 -0.0039 0.8023
vn -0.6733 0.0128 0.7393
vn -0.6176 -0.1460 0.7728
vn -0.2736 -0.7336 0.6220
vn -0.5319 -0.4145 0.7384
vn -0.3836 -0.7733 0.5048
vn 0.0011 -0.9488 0.3158
vn -0.1587 -0.9332 0.3223
vn 0.1872 -0.9816 -0.0378
vn 0.5144 -0.8460 -0.1405
vn 0.5926 -0.7408 -0.3162
vn 0.6799 -0.5346 -0.5019
vn 0.7981 0.0051 -0.6025
vn 0.7727 -0.2969 -0.5611
vn -0.6416 -0.4689 -0.6071
vn -0.2971 0.0415 -0.9539
vn -0.5748 0.2770 -0.7700
vn -0.5965 0.7095 -0.3751
vn -0.3664 0.9183 -0.1498
vn -0.0008 0.0705 0.9975
vn -0.0005 -0.1385 0.9904
vn -0.7353 0.0309 0.6770
vn -0.0005 -0.2553 0.9669
vn 0.0970 -0.9705 0.2206
vn 0.5241 -0.2297 -0.8201
vn 0.1388 -0.8465 -0.5140
vn 0.3355 -0.7201 -0.6073
vn 0.0768 0.7975 -0.5984
vn 0.4530 0.3614 -0.8149
vn 0.5606 0.2344 -0.7942
vn 0.6307 0.2287 -0.7416
vn 0.1142 0.9911 0.0687
vn 0.2035 -0.4293 0.8799
vn -0.0015 -0.9486 -0.3165
vn 0.2240 -0.5602 -0.7975
vn 0.8665 0.3505 -0.3553
vn 0.9245 0.1004 -0.3677
vn 0.7459 0.4299 -0.5088
vn 0.7694 0.6104 -0.1882
vn -0.4548 0.2788 0.8458
vn -0.4775 -0.1373 0.8678
vn -0.3832 -0.3881 0.8382
vn 0.3274 -0.9355 0.1327
vn 0.8247 -0.4740 -0.3086
vn -0.3775 -0.4548 -0.8066
vn -0.2082 -0.2067 -0.9560
vn -0.1837 0.2445 -0.9521
vn -0.5234 0.4746 -0.7077
vn -0.0008 0.9486 0.3165
vn 0.5230 -0.7292 0.4413
vn -0.4551 -0.6655 -0.5916
vn -0.5214 -0.8421 -0.1375
vn 0.1215 0.2943 -0.9480
vn 0.1370 0.0993 -0.9856
vn -0.0032 0.3055 -0.9522
vn -0.0008 0.0527 -0.9986
vn -0.0004 -0.0278 -0.9996
vn -0.0026 -0.1088 -0.9941
vn -0.0115 -0.4050 -0.9142
vn 0.1146 -0.0863 -0.9897
vn 0.0545 -0.2721 -0.9607
vn 0.2532 0.9412 0.2235
vn 0.0815 -0.9679 -0.2379
vn -0.1078 -0.7767 -0.6206
vn 0.1918 0.8098 0.5545
vn -0.0477 0.6660 0.7444
vn -0.4340 0.0933 0.8961
vn -0.1327 -0.5058 0.8524
vn 0.3355 -0.8553 0.3947
vn 0.8217 -0.5665 -0.0619
vn -0.3983 -0.8313 -0.3877
vn -0.2149 0.5565 -0.8026
vn -0.3993 0.6711 -0.6246
vn -0.2389 0.8136 -0.5302
vn 0.0187 0.5636 -0.8258
vn 0.1047 0.9420 -0.3188
vn 0.0001 0.9641 -0.2654
vn 0.0001 0.9640 -0.2659
vn 0.6633 0.5877 0.4633
vn 0.5124 -0.1401 0.8473
vn 0.3851 -0.9151 -0.1194
vn 0.9798 -0.1656 -0.1118
vn -0.1745 0.4258 0.8879
vn -0.2191 0.1910 0.9568
vn 0.1342 -0.7351 0.6645
vn -0.1213 -0.5612 -0.8187
vn -0.0012 -0.8974 -0.4413
vn 0.2679 0.9180 -0.2923
vn 0.2748 0.7882 -0.5507
vn 0.6683 0.7157 0.2027
vn 0.4262 0.8279 0.3645
vn -0.2789 -0.0316 0.9598
vn -0.1869 -0.2197 0.9575
vn 0.6025 -0.7516 0.2685
vn 0.9108 0.0454 -0.4104
vn 0.8047 0.4214 -0.4181
vn 0.9244 0.3193 -0.2087
vn 0.5723 -0.7483 -0.3356
vn 0.9893 0.1446 -0.0209
vn 0.9101 0.4117 0.0470
vn -0.1074 0.0809 0.9909
vn 0.7641 -0.5950 0.2493
vn 0.7802 0.6136 -0.1215
vn 0.2841 0.5224 0.8040
vn 0.0480 0.3167 0.9473
vn 0.2081 -0.3988 0.8931
vn 0.0210 -0.2125 0.9769
vn 0.4013 -0.6419 0.6534
vn 0.7329 -0.6754 -0.0821
vn 0.7442 -0.5552 -0.3713
vn 0.9951 -0.0435 -0.0892
vn 0.5300 0.4138 0.7402
vn 0.5323 0.6427 0.5510
vn -0.0983 -0.0703 0.9927
vn 0.9215 -0.3303 0.2041
vn 0.7725 0.4838 0.4113
vn 0.6375 -0.5236 0.5652
vn 0.9589 0.0145 0.2833
vn 0.8813 0.2573 0.3963
vn 0.0727 0.0008 0.9974
vn 0.2265 0.0307 0.9735
vn 0.9108 0.0127 0.4126
vn -0.0000 -1.0000 -0.0000
vn -0.0000 1.0000 -0.0000
vn -0.0547 0.0554 0.9970
vn -0.0725 0.0236 0.9971
vn -0.9108 -0.0127 -0.4126
vn 0.8617 -0.3395 0.3772
vn 0.6149 0.4240 0.6650
vn 0.4500 0.2495 0.8574
vn 0.6830 -0.0977 0.7239
vn 0.9923 -0.1240 -0.0000
vn -0.0216 -0.0598 0.9980
vn -0.0403 -0.0107 0.9991
vn -1.0000 -0.0001 0.0021
vn -0.7526 0.6585 -0.0000
vn -1.0000 -0.0000 -0.0000
vn 0.9954 0.0030 -0.0959
vn 0.5932 -0.3792 0.7102
vn 0.3782 -0.0894 0.9214
vn 0.8443 -0.2987 0.4449
vn 0.9493 -0.0736 0.3058
vn 0.8156 0.5027 0.2867
vn 0.9954 0.0028 -0.0960
vn -0.9954 -0.0030 0.0959
vn -0.9954 -0.0029 0.0959
vn 0.5228 -0.2424 0.8173
vn 0.8034 -0.1716 0.5702
vn 0.8032 -0.0925 0.5884
vn 0.7091 0.1917 0.6786
vn 0.5850 0.0009 0.8111
vn 0.7019 -0.0394 0.7112
s 1
f 2//1 1//2 3//3
f 1//2 5//4 3//3
f 6//5 2//1 4//6
f 6//5 1//2 2//1
f 9//7 1//2 6//5
f 7//8 5//4 1//2
f 2//1 3//3 11//9
f 3//3 5//4 8//10
f 7//8 1//2 10//11
f 15//12 3//3 8//10
f 12//13 6//5 4//6
f 10//11 1//2 9//7
f 12//13 4//6 17//14
f 17//14 4//6 54//15
f 15//12 11//9 3//3
f 8//10 5//4 13//16
f 5//4 7//8 13//16
f 4//6 2//1 14//17
f 14//17 2//1 11//9
f 13//16 7//8 22//18
f 18//19 15//12 8//10
f 18//19 8//10 16//20
f 19//21 9//7 6//5
f 19//21 6//5 12//13
f 16//20 8//10 13//16
f 52//22 10//11 9//7
f 53//23 12//13 17//14
f 22//18 7//8 10//11
f 20//24 17//14 21//25
f 17//14 54//15 21//25
f 4//6 14//17 54//15
f 11//9 15//12 18//19
f 23//26 13//26 22//26
f 66//27 13//27 23//27
f 25//28 24//29 26//30
f 27//31 25//28 26//30
f 29//32 27//31 28//33
f 32//34 29//32 31//35
f 66//36 50//37 13//38
f 34//39 32//34 33//40
f 35//41 36//41 37//41
f 35//41 38//41 36//41
f 35//41 39//41 38//41
f 43//42 41//43 44//44
f 45//45 43//42 44//44
f 41//43 40//46 47//47
f 48//48 46//49 55//50
f 50//37 48//48 16//51
f 16//51 13//38 50//37
f 16//51 48//48 55//50
f 55//50 46//49 49//52
f 49//52 45//45 44//44
f 44//44 41//43 42//53
f 42//53 41//43 47//47
f 40//54 35//54 37//54
f 33//40 32//34 31//35
f 31//35 29//32 30//55
f 30//55 29//32 28//33
f 28//33 27//31 26//30
f 26//30 24//29 23//56
f 24//29 66//57 23//56
f 35//58 34//58 39//58
f 46//49 51//59 49//52
f 51//59 45//45 49//52
f 52//22 9//7 19//21
f 20//24 53//23 17//14
f 74//60 14//17 11//9
f 75//61 11//9 18//19
f 76//62 18//19 55//63
f 55//63 18//19 16//20
f 76//62 55//63 49//64
f 56//65 49//64 44//66
f 57//67 44//66 42//68
f 47//69 40//70 58//71
f 58//71 40//70 78//72
f 38//41 59//41 37//41
f 37//73 59//73 40//73
f 36//41 38//41 37//41
f 61//74 60//74 38//75
f 61//41 38//41 39//41
f 61//76 39//76 34//76
f 62//77 79//78 34//79
f 62//77 34//79 33//80
f 31//81 63//82 33//83
f 28//84 26//85 64//86
f 26//85 23//87 65//88
f 23//87 22//18 10//11
f 25//89 83//90 24//91
f 27//92 84//93 25//89
f 29//94 85//95 27//92
f 32//96 67//97 29//94
f 68//98 32//96 34//99
f 98//100 34//99 35//101
f 40//102 98//100 35//101
f 69//103 41//104 43//105
f 70//106 45//107 51//108
f 71//109 51//108 46//110
f 48//111 50//112 86//113
f 19//21 12//13 87//114
f 20//24 21//25 72//115
f 72//115 21//25 73//116
f 73//116 21//25 74//60
f 21//25 54//15 74//60
f 88//117 74//60 11//9
f 88//117 11//9 75//61
f 75//61 18//19 76//62
f 77//118 76//62 49//64
f 59//119 60//120 79//78
f 78//72 59//119 79//78
f 40//70 59//119 78//72
f 60//74 59//121 38//75
f 61//122 34//79 79//78
f 60//120 61//122 79//78
f 62//77 33//80 80//123
f 63//82 81//124 33//83
f 28//84 82//125 30//126
f 68//98 34//99 98//100
f 87//114 12//13 53//23
f 87//114 53//23 20//24
f 54//15 14//17 74//60
f 56//65 77//118 49//64
f 89//127 56//65 44//66
f 57//67 89//127 44//66
f 90//128 57//67 42//68
f 90//128 42//68 91//129
f 42//68 47//130 91//129
f 92//131 47//69 58//71
f 129//132 79//78 62//77
f 33//80 81//133 80//123
f 31//81 93//134 63//82
f 30//126 93//134 31//81
f 64//86 82//125 28//84
f 26//85 65//88 64//86
f 23//87 52//22 65//88
f 10//11 52//22 23//87
f 50//112 95//135 94//136
f 50//112 66//137 95//135
f 66//137 24//91 96//138
f 24//91 83//90 96//138
f 25//89 84//93 83//90
f 27//92 85//95 84//93
f 29//94 67//97 85//95
f 67//97 32//96 97//139
f 32//96 68//98 97//139
f 100//140 40//102 41//104
f 100//140 41//104 99//141
f 99//141 41//104 69//103
f 43//105 45//107 69//103
f 70//106 51//108 101//142
f 101//142 51//108 71//109
f 46//110 48//111 102//143
f 48//111 86//113 102//143
f 103//144 87//114 20//24
f 103//144 20//24 104//145
f 104//145 20//24 72//115
f 72//115 73//116 105//146
f 105//146 73//116 106//147
f 73//116 74//60 106//147
f 77//118 75//61 76//62
f 91//148 47//69 92//131
f 107//149 129//132 62//77
f 107//149 62//77 80//123
f 86//113 50//112 94//136
f 66//137 96//138 95//135
f 68//98 98//100 97//139
f 100//140 98//100 40//102
f 69//103 45//107 70//106
f 123//150 19//21 87//114
f 52//22 19//21 119//151
f 72//115 105//146 109//152
f 72//115 109//152 116//153
f 72//115 116//153 110//154
f 72//115 110//154 111//155
f 72//115 111//155 112//156
f 72//115 112//156 113//157
f 72//115 113//157 117//158
f 72//115 117//158 114//159
f 114//159 115//160 72//115
f 72//115 115//160 104//145
f 77//118 88//117 75//61
f 109//152 57//67 90//128
f 116//153 109//152 90//128
f 90//128 91//129 116//153
f 144//161 92//131 58//71
f 80//123 81//133 117//162
f 82//125 93//134 30//126
f 64//86 118//163 82//125
f 64//86 65//88 119//151
f 84//93 85//95 120//164
f 85//95 67//97 132//165
f 98//100 108//166 97//139
f 99//141 69//103 121//167
f 70//106 101//142 122//168
f 71//109 46//110 134//169
f 46//110 102//143 134//169
f 130//170 19//21 123//150
f 119//151 19//21 130//170
f 123//150 87//114 103//144
f 63//82 115//160 114//159
f 63//82 114//159 81//124
f 105//146 106//147 124//171
f 124//171 106//147 125//172
f 89//127 126//173 56//65
f 127//174 89//127 57//67
f 109//152 127//174 57//67
f 110//175 116//176 92//131
f 116//176 91//177 92//131
f 144//178 58//71 78//72
f 78//72 79//78 128//179
f 128//179 79//78 129//132
f 80//123 117//162 145//180
f 82//125 118//163 93//134
f 64//86 119//151 130//170
f 65//88 52//22 119//151
f 86//113 94//136 131//181
f 67//97 97//139 138//182
f 97//139 108//166 133//183
f 97//139 133//183 138//182
f 100//140 108//166 98//100
f 69//103 70//106 141//184
f 141//184 70//106 122//168
f 102//143 86//113 131//181
f 142//185 104//145 115//160
f 93//134 142//185 115//160
f 93//134 115//160 63//82
f 81//133 114//186 117//162
f 135//187 111//188 110//175
f 109//152 124//171 127//174
f 105//146 124//171 109//152
f 125//172 106//147 88//117
f 106//147 74//60 88//117
f 126//173 77//118 56//65
f 135//187 110//175 92//131
f 107//149 80//123 145//180
f 130//170 118//163 64//86
f 95//135 96//138 94//136
f 83//90 136//189 96//138
f 83//90 137//190 136//189
f 84//93 137//190 83//90
f 84//93 120//164 137//190
f 120//164 85//95 132//165
f 132//165 67//97 138//182
f 139//191 133//183 108//166
f 99//141 139//191 100//140
f 140//192 139//191 99//141
f 140//192 99//141 121//167
f 121//167 69//103 141//184
f 101//142 71//109 149//193
f 149//193 71//109 134//169
f 123//150 103//144 142//185
f 142//185 103//144 104//145
f 112//194 111//195 143//196
f 126//173 88//117 77//118
f 135//187 92//131 144//161
f 145//180 117//162 113//197
f 118//163 142//185 93//134
f 146//198 131//181 94//136
f 94//136 147//199 146//198
f 96//138 147//199 94//136
f 139//191 148//200 133//183
f 122//168 101//142 149//193
f 149//193 134//169 150//201
f 134//169 102//143 131//181
f 118//163 123//150 142//185
f 143//196 111//195 135//202
f 125//172 88//117 126//173
f 124//171 125//172 126//173
f 89//127 124//171 126//173
f 127//174 124//171 89//127
f 130//170 123//150 118//163
f 96//138 136//189 147//199
f 120//164 132//165 151//203
f 132//165 152//204 151//203
f 132//165 138//182 152//204
f 108//166 100//140 139//191
f 153//205 121//167 141//184
f 140//192 121//167 154//206
f 154//206 121//167 153//205
f 141//184 122//168 159//207
f 155//208 113//197 112//209
f 155//210 112//194 143//196
f 78//72 128//179 156//211
f 128//179 129//132 107//149
f 155//208 107//149 145//180
f 137//190 157//212 136//189
f 137//190 120//164 157//212
f 138//182 133//183 152//204
f 158//213 148//200 139//191
f 158//213 140//192 154//206
f 159//207 122//168 149//193
f 150//201 134//169 160//214
f 144//178 78//72 156//211
f 155//208 145//180 113//197
f 136//189 161//215 147//199
f 136//189 157//212 161//215
f 120//164 151//203 157//212
f 148//200 152//204 133//183
f 139//191 140//192 158//213
f 153//205 141//184 159//207
f 159//207 149//193 163//216
f 163//216 149//193 150//201
f 160//214 134//169 131//181
f 164//217 131//181 146//198
f 147//199 165//218 146//198
f 165//218 164//217 146//198
f 147//199 161//215 165//218
f 152//204 167//219 166//220
f 162//221 168//222 167//221
f 169//223 167//221 168//222
f 148//200 158//213 168//224
f 158//213 169//225 168//224
f 170//41 167//41 169//41
f 167//221 152//221 162//221
f 162//226 152//226 168//226
f 166//220 154//206 153//205
f 160//214 131//181 164//217
f 183//227 107//149 155//208
f 157//212 171//228 161//215
f 157//212 151//203 171//228
f 151//203 152//204 181//229
f 152//204 166//220 181//229
f 167//219 154//206 166//220
f 167//41 174//41 173//230
f 175//231 167//231 173//231
f 158//213 175//232 173//233
f 175//234 176//235 167//236
f 176//237 154//237 167//237
f 170//41 174//41 167//41
f 169//236 173//236 170//236
f 170//41 173//230 174//41
f 169//225 158//213 173//233
f 148//200 168//224 152//204
f 153//205 159//207 177//238
f 166//220 153//205 172//239
f 159//207 163//216 177//238
f 163//216 150//201 179//240
f 150//201 160//214 179//240
f 155//210 143//196 180//241
f 180//242 143//196 144//178
f 143//196 135//202 144//178
f 128//179 107//149 183//227
f 171//228 151//203 181//229
f 176//237 178//243 154//237
f 154//244 178//245 175//234
f 175//234 178//245 176//235
f 175//232 158//213 154//206
f 182//246 153//205 177//238
f 172//239 153//205 182//246
f 164//217 179//240 160//214
f 156//247 128//179 180//241
f 180//241 128//179 183//227
f 161//215 171//228 165//218
f 166//220 172//239 181//229
f 180//241 183//227 155//210
f 180//242 144//178 156//211
f 165//218 185//248 164//217
f 171//228 184//249 165//218
f 171//228 181//229 184//249
f 177//238 163//216 185//248
f 185//248 163//216 179//240
f 185//248 179//240 164//217
f 184//249 185//248 165//218
f 181//229 186//250 184//249
f 181//229 172//239 186//250
f 186//250 172//239 182//246
f 182//246 177//238 185//248
f 184//249 187//251 185//248
f 182//246 185//248 187//251
f 186//250 182//246 187//251
f 184//249 186//250 187//251
